<svg width="25" height="22" viewBox="0 0 25 22" fill="none" xmlns="http://www.w3.org/2000/svg">
<path id="Icons" d="M16.733 20.9001V3.3001C16.733 2.71662 16.5012 2.15704 16.0886 1.74446C15.6761 1.33188 15.1165 1.1001 14.533 1.1001H10.133C9.54953 1.1001 8.98995 1.33188 8.57737 1.74446C8.16479 2.15704 7.93301 2.71662 7.93301 3.3001V20.9001M3.53301 5.5001H21.133C22.348 5.5001 23.333 6.48507 23.333 7.7001V18.7001C23.333 19.9151 22.348 20.9001 21.133 20.9001H3.53301C2.31798 20.9001 1.33301 19.9151 1.33301 18.7001V7.7001C1.33301 6.48507 2.31798 5.5001 3.53301 5.5001Z" stroke="#4F46E5" stroke-width="2" stroke-linecap="round" stroke-linejoin="round"/>
</svg>
