<svg width="21" height="18" viewBox="0 0 21 18" fill="none" xmlns="http://www.w3.org/2000/svg">
<path id="Icons" d="M13.7727 16.3637V14.7274C13.7727 13.8594 13.4279 13.027 12.8142 12.4132C12.2004 11.7995 11.368 11.4547 10.5 11.4547H4.77273C3.90475 11.4547 3.07232 11.7995 2.45856 12.4132C1.8448 13.027 1.5 13.8594 1.5 14.7274V16.3637M14.5909 8.18193L16.2273 9.81829L19.5 6.54557M10.9091 4.9092C10.9091 6.71668 9.44384 8.18193 7.63636 8.18193C5.82889 8.18193 4.36364 6.71668 4.36364 4.9092C4.36364 3.10172 5.82889 1.63647 7.63636 1.63647C9.44384 1.63647 10.9091 3.10172 10.9091 4.9092Z" stroke="#312E81" stroke-width="1.5" stroke-linecap="round" stroke-linejoin="round"/>
</svg>
