<svg width="25" height="20" viewBox="0 0 25 20" fill="none" xmlns="http://www.w3.org/2000/svg">
<path id="Icons" d="M16.6665 19V17C16.6665 15.9391 16.2451 14.9217 15.4949 14.1716C14.7448 13.4214 13.7274 13 12.6665 13H5.6665C4.60564 13 3.58822 13.4214 2.83808 14.1716C2.08793 14.9217 1.6665 15.9391 1.6665 17V19M20.6665 6V12M23.6665 9H17.6665M13.1665 5C13.1665 7.20914 11.3756 9 9.1665 9C6.95736 9 5.1665 7.20914 5.1665 5C5.1665 2.79086 6.95736 1 9.1665 1C11.3756 1 13.1665 2.79086 13.1665 5Z" stroke="#4F46E5" stroke-width="2" stroke-linecap="round" stroke-linejoin="round"/>
</svg>
