<svg width="18" height="16" viewBox="0 0 18 16" fill="none" xmlns="http://www.w3.org/2000/svg">
<path id="Icons" d="M12.2 15.2V2.40005C12.2 1.9757 12.0314 1.56874 11.7314 1.26868C11.4313 0.96862 11.0243 0.800049 10.6 0.800049H7.4C6.97565 0.800049 6.56869 0.96862 6.26863 1.26868C5.96857 1.56874 5.8 1.9757 5.8 2.40005V15.2M2.6 4.00005H15.4C16.2837 4.00005 17 4.71639 17 5.60005V13.6C17 14.4837 16.2837 15.2 15.4 15.2H2.6C1.71634 15.2 1 14.4837 1 13.6V5.60005C1 4.71639 1.71634 4.00005 2.6 4.00005Z" stroke="#94A3B8" stroke-width="1.5" stroke-linecap="round" stroke-linejoin="round"/>
</svg>
