<svg width="12" height="20" viewBox="0 0 12 20" fill="none" xmlns="http://www.w3.org/2000/svg">
<path id="Union" d="M8.46587 0C7.12163 0 5.83243 0.534001 4.88191 1.48453C3.93138 2.43505 3.39738 3.72425 3.39738 5.06849V7.89041H0.685052C0.548872 7.89041 0.438477 8.00081 0.438477 8.13699V11.863C0.438477 11.9992 0.548872 12.1096 0.685052 12.1096H3.39738V19.7534C3.39738 19.8896 3.50778 20 3.64396 20H7.36998C7.50616 20 7.61656 19.8896 7.61656 19.7534V12.1096H10.3529C10.4661 12.1096 10.5647 12.0326 10.5921 11.9228L11.5236 8.19679C11.5625 8.04116 11.4448 7.89041 11.2844 7.89041H7.61656V5.06849C7.61656 4.84324 7.70604 4.62721 7.86532 4.46794C8.02459 4.30866 8.24062 4.21918 8.46587 4.21918H11.3152C11.4514 4.21918 11.5618 4.10878 11.5618 3.9726V0.246575C11.5618 0.110396 11.4514 0 11.3152 0H8.46587Z" fill="#EEF2FF"/>
</svg>
