<svg width="16" height="18" viewBox="0 0 16 18" fill="none" xmlns="http://www.w3.org/2000/svg">
<g id="Union">
<path d="M1.81333 0.600006C0.811857 0.600006 0 1.43031 0 2.45455C0 3.47879 0.811857 4.3091 1.81333 4.3091C2.81481 4.3091 3.62667 3.47879 3.62667 2.45455C3.62667 1.43031 2.81481 0.600006 1.81333 0.600006Z" fill="#EEF2FF"/>
<path d="M0.106667 5.83637C0.0477563 5.83637 0 5.88521 0 5.94546V17.2909C0 17.3512 0.0477563 17.4 0.106667 17.4H3.52C3.57891 17.4 3.62667 17.3512 3.62667 17.2909V5.94546C3.62667 5.88521 3.57891 5.83637 3.52 5.83637H0.106667Z" fill="#EEF2FF"/>
<path d="M5.65333 5.83637C5.59442 5.83637 5.54667 5.88521 5.54667 5.94546V17.2909C5.54667 17.3512 5.59442 17.4 5.65333 17.4H9.06667C9.12558 17.4 9.17333 17.3512 9.17333 17.2909V11.1818C9.17333 10.7478 9.3419 10.3316 9.64196 10.0247C9.94202 9.71786 10.349 9.54546 10.7733 9.54546C11.1977 9.54546 11.6046 9.71786 11.9047 10.0247C12.2048 10.3316 12.3733 10.7478 12.3733 11.1818V17.2909C12.3733 17.3512 12.4211 17.4 12.48 17.4H15.8933C15.9522 17.4 16 17.3512 16 17.2909V9.76822C16 7.65033 14.1989 5.99346 12.1385 6.18502C11.5031 6.2441 10.8748 6.40566 10.2882 6.66279L9.17333 7.15145V5.94546C9.17333 5.88521 9.12558 5.83637 9.06667 5.83637H5.65333Z" fill="#EEF2FF"/>
</g>
</svg>
