<svg width="16" height="18" viewBox="0 0 16 18" fill="none" xmlns="http://www.w3.org/2000/svg">
<g id="Icons">
<path d="M14.545 7.54545C14.545 12.6364 7.99956 17 7.99956 17C7.99956 17 1.4541 12.6364 1.4541 7.54545C1.4541 5.80949 2.14371 4.14463 3.37122 2.91712C4.59873 1.68961 6.26359 1 7.99956 1C9.73552 1 11.4004 1.68961 12.6279 2.91712C13.8554 4.14463 14.545 5.80949 14.545 7.54545Z" stroke="#94A3B8" stroke-width="1.5" stroke-linecap="round" stroke-linejoin="round"/>
<path d="M7.99956 9.72727C9.20454 9.72727 10.1814 8.75044 10.1814 7.54545C10.1814 6.34047 9.20454 5.36364 7.99956 5.36364C6.79457 5.36364 5.81774 6.34047 5.81774 7.54545C5.81774 8.75044 6.79457 9.72727 7.99956 9.72727Z" stroke="#94A3B8" stroke-width="1.5" stroke-linecap="round" stroke-linejoin="round"/>
</g>
</svg>
