<svg width="20" height="14" viewBox="0 0 20 14" fill="none" xmlns="http://www.w3.org/2000/svg">
<path id="Vector" d="M11.3125 8.3125C10.5833 8.3125 9.96354 8.05729 9.45312 7.54688C8.94271 7.03646 8.6875 6.41667 8.6875 5.6875C8.6875 4.95833 8.94271 4.33854 9.45312 3.82812C9.96354 3.31771 10.5833 3.0625 11.3125 3.0625C12.0417 3.0625 12.6615 3.31771 13.1719 3.82812C13.6823 4.33854 13.9375 4.95833 13.9375 5.6875C13.9375 6.41667 13.6823 7.03646 13.1719 7.54688C12.6615 8.05729 12.0417 8.3125 11.3125 8.3125ZM4.3125 11.375C3.95156 11.375 3.64258 11.2465 3.38555 10.9895C3.12852 10.7324 3 10.4234 3 10.0625V1.3125C3 0.951562 3.12852 0.642578 3.38555 0.385547C3.64258 0.128516 3.95156 0 4.3125 0H18.3125C18.6734 0 18.9824 0.128516 19.2395 0.385547C19.4965 0.642578 19.625 0.951562 19.625 1.3125V10.0625C19.625 10.4234 19.4965 10.7324 19.2395 10.9895C18.9824 11.2465 18.6734 11.375 18.3125 11.375H4.3125ZM6.5 10.0625H16.125C16.125 9.45 16.3365 8.93229 16.7594 8.50937C17.1823 8.08646 17.7 7.875 18.3125 7.875V3.5C17.7 3.5 17.1823 3.28854 16.7594 2.86562C16.3365 2.44271 16.125 1.925 16.125 1.3125H6.5C6.5 1.925 6.28854 2.44271 5.86562 2.86562C5.44271 3.28854 4.925 3.5 4.3125 3.5V7.875C4.925 7.875 5.44271 8.08646 5.86562 8.50937C6.28854 8.93229 6.5 9.45 6.5 10.0625ZM1.6875 14C1.32656 14 1.01758 13.8715 0.760547 13.6145C0.503516 13.3574 0.375 13.0484 0.375 12.6875V3.28125C0.375 3.09531 0.438255 2.93945 0.564766 2.81367C0.691291 2.68789 0.848062 2.625 1.03508 2.625C1.22211 2.625 1.3776 2.68789 1.50156 2.81367C1.62552 2.93945 1.6875 3.09531 1.6875 3.28125V12.6875H16.3438C16.5297 12.6875 16.6855 12.7508 16.8113 12.8773C16.9371 13.0038 17 13.1606 17 13.3476C17 13.5346 16.9371 13.6901 16.8113 13.8141C16.6855 13.938 16.5297 14 16.3438 14H1.6875Z" fill="#94A3B8"/>
</svg>
