<svg width="20" height="22" viewBox="0 0 20 22" fill="none" xmlns="http://www.w3.org/2000/svg">
<path id="Icons" d="M11.73 20.0018C11.5542 20.3049 11.3018 20.5565 10.9982 20.7314C10.6946 20.9062 10.3504 20.9983 10 20.9983C9.64962 20.9983 9.30539 20.9062 9.00177 20.7314C8.69816 20.5565 8.44581 20.3049 8.27 20.0018M16 7.00183C16 5.41053 15.3679 3.88441 14.2426 2.75919C13.1174 1.63397 11.5913 1.00183 10 1.00183C8.4087 1.00183 6.88258 1.63397 5.75736 2.75919C4.63214 3.88441 4 5.41053 4 7.00183C4 14.0018 1 16.0018 1 16.0018H19C19 16.0018 16 14.0018 16 7.00183Z" stroke="#ED0A34" stroke-width="2" stroke-linecap="round" stroke-linejoin="round"/>
</svg>
