<svg width="18" height="15" viewBox="0 0 18 15" fill="none" xmlns="http://www.w3.org/2000/svg">
<path id="Icons" d="M11.912 10.4079L9.00314 7.49912M9.00314 7.49912L6.09432 10.4079M9.00314 7.49912V14.044M15.1044 12.146C15.8137 11.7593 16.374 11.1474 16.6969 10.4069C17.0198 9.66646 17.0869 8.83953 16.8877 8.05666C16.6884 7.27379 16.2341 6.57957 15.5965 6.08357C14.9588 5.58757 14.1742 5.31803 13.3664 5.3175H12.4501C12.23 4.46612 11.8197 3.67571 11.2502 3.00571C10.6806 2.3357 9.96657 1.80353 9.16174 1.44921C8.35691 1.09488 7.48222 0.927622 6.60344 0.96C5.72467 0.992378 4.86466 1.22355 4.08808 1.63614C3.31151 2.04873 2.63857 2.63201 2.11986 3.34211C1.60115 4.05221 1.25017 4.87066 1.09331 5.73593C0.936443 6.6012 0.977774 7.49078 1.21419 8.33777C1.45061 9.18477 1.87597 9.96716 2.45829 10.6261" stroke="white" stroke-width="1.5" stroke-linecap="round" stroke-linejoin="round"/>
</svg>
